HIERARCHY
ROOT hip
{
  OFFSET 0 0 0
  CHANNELS 6 Xposition Yposition Zposition Zrotation Yrotation Xrotation
  JOINT abdomen
  {
    OFFSET 0 20.6881 -0.73152
    CHANNELS 3 Zrotation Xrotation Yrotation
    JOINT chest
    {
      OFFSET 0 11.7043 -0.48768
      CHANNELS 3 Zrotation Xrotation Yrotation
      JOINT neck
      {
        OFFSET 0 22.1894 -2.19456
        CHANNELS 3 Zrotation Xrotation Yrotation
        JOINT head
        {
          OFFSET -0.24384 7.07133 1.2192
          CHANNELS 3 Zrotation Xrotation Yrotation
          JOINT leftEye
          {
            OFFSET 4.14528 8.04674 8.04672
            CHANNELS 3 Zrotation Xrotation Yrotation
            End Site
            {
              OFFSET 1 0 0
            }
          }
          JOINT rightEye
          {
            OFFSET -3.6576 8.04674 8.04672
            CHANNELS 3 Zrotation Xrotation Yrotation
            End Site
            {
              OFFSET 1 0 0
            }
          }
        }
      }
      JOINT rCollar
      {
        OFFSET -2.68224 19.2634 -4.8768
        CHANNELS 3 Zrotation Xrotation Yrotation
        JOINT rShldr
        {
          OFFSET -8.77824 -1.95073 1.46304
          CHANNELS 3 Zrotation Xrotation Yrotation
          JOINT rForeArm
          {
            OFFSET -28.1742 -1.7115 0.48768
            CHANNELS 3 Zrotation Xrotation Yrotation
            JOINT rHand
            {
              OFFSET -22.5879 0.773209 7.07136
              CHANNELS 3 Zrotation Xrotation Yrotation
              JOINT rThumb1
              {
                OFFSET -1.2192 -0.487915 3.41376
                CHANNELS 3 Zrotation Xrotation Yrotation
                JOINT rThumb2
                {
                  OFFSET -3.37035 -0.52449 3.41376
                  CHANNELS 3 Zrotation Xrotation Yrotation
                  End Site
                  {
                    OFFSET -1.78271 -1.18214 1.43049
                  }
                }
              }
              JOINT rIndex1
              {
                OFFSET -7.75947 0.938293 5.60832
                CHANNELS 3 Zrotation Xrotation Yrotation
                JOINT rIndex2
                {
                  OFFSET -2.54057 -0.884171 1.56538
                  CHANNELS 3 Zrotation Xrotation Yrotation
                  End Site
                  {
                    OFFSET -1.62519 -0.234802 1.16502
                  }
                }
              }
              JOINT rMid1
              {
                OFFSET -8.24714 1.18213 3.41376
                CHANNELS 3 Zrotation Xrotation Yrotation
                JOINT rMid2
                {
                  OFFSET -3.10165 -0.590103 1.0647
                  CHANNELS 3 Zrotation Xrotation Yrotation
                  End Site
                  {
                    OFFSET -2.48547 -0.328903 0.83742
                  }
                }
              }
              JOINT rRing1
              {
                OFFSET -8.82822 0.546677 1.51678
                CHANNELS 3 Zrotation Xrotation Yrotation
                JOINT rRing2
                {
                  OFFSET -2.60934 -0.819778 -0.0198488
                  CHANNELS 3 Zrotation Xrotation Yrotation
                  End Site
                  {
                    OFFSET -2.33842 -0.294052 0.168128
                  }
                }
              }
              JOINT rPinky1
              {
                OFFSET -8.27202 -0.0477905 -0.4584
                CHANNELS 3 Zrotation Xrotation Yrotation
                JOINT rPinky2
                {
                  OFFSET -1.82734 -0.647385 -0.700984
                  CHANNELS 3 Zrotation Xrotation Yrotation
                  End Site
                  {
                    OFFSET -1.69225 -0.51767 -0.607171
                  }
                }
              }
            }
          }
        }
      }
      JOINT lCollar
      {
        OFFSET 2.68224 19.2634 -4.8768
        CHANNELS 3 Zrotation Xrotation Yrotation
        JOINT lShldr
        {
          OFFSET 8.77824 -1.95073 1.46304
          CHANNELS 3 Zrotation Xrotation Yrotation
          JOINT lForeArm
          {
            OFFSET 28.1742 -1.7115 0.48768
            CHANNELS 3 Zrotation Xrotation Yrotation
            JOINT lHand
            {
              OFFSET 22.5879 0.773209 7.07136
              CHANNELS 3 Zrotation Xrotation Yrotation
              JOINT lThumb1
              {
                OFFSET 1.2192 -0.487915 3.41376
                CHANNELS 3 Zrotation Xrotation Yrotation
                JOINT lThumb2
                {
                  OFFSET 3.37035 -0.52449 3.41376
                  CHANNELS 3 Zrotation Xrotation Yrotation
                  End Site
                  {
                    OFFSET 1.78271 -1.18214 1.43049
                  }
                }
              }
              JOINT lIndex1
              {
                OFFSET 7.75947 0.938293 5.60832
                CHANNELS 3 Zrotation Xrotation Yrotation
                JOINT lIndex2
                {
                  OFFSET 2.54057 -0.884171 1.56538
                  CHANNELS 3 Zrotation Xrotation Yrotation
                  End Site
                  {
                    OFFSET 1.62519 -0.234802 1.16502
                  }
                }
              }
              JOINT lMid1
              {
                OFFSET 8.24714 1.18213 3.41376
                CHANNELS 3 Zrotation Xrotation Yrotation
                JOINT lMid2
                {
                  OFFSET 3.10165 -0.590103 1.0647
                  CHANNELS 3 Zrotation Xrotation Yrotation
                  End Site
                  {
                    OFFSET 2.48547 -0.328903 0.83742
                  }
                }
              }
              JOINT lRing1
              {
                OFFSET 8.82822 0.546677 1.51678
                CHANNELS 3 Zrotation Xrotation Yrotation
                JOINT lRing2
                {
                  OFFSET 2.60934 -0.819778 -0.0198488
                  CHANNELS 3 Zrotation Xrotation Yrotation
                  End Site
                  {
                    OFFSET 2.33842 -0.294052 0.168128
                  }
                }
              }
              JOINT lPinky1
              {
                OFFSET 8.27202 -0.0477905 -0.4584
                CHANNELS 3 Zrotation Xrotation Yrotation
                JOINT lPinky2
                {
                  OFFSET 1.82734 -0.647385 -0.700984
                  CHANNELS 3 Zrotation Xrotation Yrotation
                  End Site
                  {
                    OFFSET 1.69225 -0.51767 -0.607171
                  }
                }
              }
            }
          }
        }
      }
    }
  }
  JOINT rButtock
  {
    OFFSET -8.77824 4.35084 1.2192
    CHANNELS 3 Zrotation Xrotation Yrotation
    JOINT rThigh
    {
      OFFSET 0 -1.70687 -2.19456
      CHANNELS 3 Zrotation Xrotation Yrotation
      JOINT rShin
      {
        OFFSET 0 -36.8199 0.73152
        CHANNELS 3 Zrotation Xrotation Yrotation
        JOINT rFoot
        {
          OFFSET 0.73152 -45.1104 -5.12064
          CHANNELS 3 Zrotation Xrotation Yrotation
          End Site
          {
            OFFSET -1.1221 -3.69964 12.103
          }
        }
      }
    }
  }
  JOINT lButtock
  {
    OFFSET 8.77824 4.35084 1.2192
    CHANNELS 3 Zrotation Xrotation Yrotation
    JOINT lThigh
    {
      OFFSET 0 -1.70687 -2.19456
      CHANNELS 3 Zrotation Xrotation Yrotation
      JOINT lShin
      {
        OFFSET 0 -36.8199 0.73152
        CHANNELS 3 Zrotation Xrotation Yrotation
        JOINT lFoot
        {
          OFFSET -0.73152 -45.1104 -5.12064
          CHANNELS 3 Zrotation Xrotation Yrotation
          End Site
          {
            OFFSET 1.1221 -3.69964 12.103
          }
        }
      }
    }
  }
}
MOTION
Frames:	7
Frame Time:	0.00833333
55.8238 81.6488 49.0062 -1.9403 8.8114 6.8433 13.215 7.27697 2.39049 -0.0665451 1.40697 0.940697 -3.59786 12.8432 -3.88267 5.32816 4.26791 -7.18028 -0.0 0.0 0.0 -0.0 0.0 0.0 -4.03945e-14 2.38336e-13 1.12978e-13 58.1668 24.3365 -7.66644 -23.9745 -19.0495 49.5297 -0.147157 10.8938 1.5498 -2.76064e-09 9.03147e-10 1.25163e-09 -4.76416e-09 1.50643e-09 2.18941e-09 -2.76064e-09 9.03148e-10 1.25163e-09 7.73091 5.47488 0.417314 -2.76063e-09 9.03134e-10 1.25164e-09 2.90554 0.965183 0.102902 -2.76064e-09 9.03149e-10 1.25163e-09 10.2786 0.731801 0.0259123 -2.76064e-09 9.0315e-10 1.25164e-09 2.22167 -0.733487 -0.20892 -4.04822e-14 2.38299e-13 1.12841e-13 -32.3732 -22.2876 12.8506 20.0256 -53.3281 -114.152 0.00137546 1.48623 -0.208895 -2.58596e-09 1.52491e-09 -1.0496e-09 -4.47976e-09 2.62149e-09 -1.81026e-09 -2.58597e-09 1.5249e-09 -1.04957e-09 -7.73091 5.47488 -0.417314 -2.58596e-09 1.5249e-09 -1.04959e-09 -2.90554 0.965183 -0.102902 -2.58597e-09 1.52491e-09 -1.04959e-09 -10.2786 0.731801 -0.0259123 -2.58596e-09 1.52491e-09 -1.04959e-09 -2.22167 -0.733487 0.20892 -2.03217e-16 0.0 -3.88251e-19 2.76221 -31.9826 11.1153 0.122266 33.5739 0.881656 -1.75557 -26.0603 -12.2102 2.03217e-16 0.0 3.88251e-19 12.5888 -31.7505 3.97614 0.388281 46.4232 -1.52008 -1.71989 -4.83452 -15.0085
55.2289 81.2583 48.1969 -1.9436 8.5757 6.8873 12.5032 7.33511 2.43085 -0.0791408 1.28106 0.956814 -3.59849 12.8181 -3.89318 5.31911 4.14662 -7.19583 -0.0 0.0 0.0 -0.0 0.0 0.0 -6.8292e-14 1.95019e-13 8.21447e-14 58.3041 23.4065 -8.22984 -24.0472 -19.1857 49.759 -0.162136 11.437 1.62907 -1.38262e-09 5.99498e-11 8.00413e-10 -2.38429e-09 7.37206e-11 1.39622e-09 -1.38262e-09 5.99514e-11 8.00415e-10 7.73091 5.47488 0.417314 -1.38262e-09 5.99404e-11 8.00418e-10 2.90554 0.965183 0.102902 -1.38262e-09 5.99507e-11 8.00413e-10 10.2786 0.731801 0.0259123 -1.38263e-09 5.99502e-11 8.00417e-10 2.22167 -0.733487 -0.20892 -6.83271e-14 1.94996e-13 8.20173e-14 -32.1351 -22.6934 12.9764 20.0533 -53.3054 -114.085 -0.0013507 0.55718 -0.0782632 -1.38907e-09 1.31922e-09 -8.21422e-10 -2.40604e-09 2.27349e-09 -1.41776e-09 -1.38908e-09 1.3192e-09 -8.21401e-10 -7.73091 5.47488 -0.417314 -1.38907e-09 1.3192e-09 -8.21418e-10 -2.90554 0.965183 -0.102902 -1.38908e-09 1.31921e-09 -8.21419e-10 -10.2786 0.731801 -0.0259123 -1.38907e-09 1.31922e-09 -8.21423e-10 -2.22167 -0.733487 0.20892 -2.03217e-16 0.0 -3.88251e-19 1.54244 -30.5036 10.3865 0.0496153 34.2107 0.963885 -1.39015 -25.4463 -11.6801 2.03217e-16 0.0 3.88251e-19 11.6129 -32.4214 3.66475 0.402485 46.9759 -1.5304 -1.90629 -5.58629 -15.1828
54.6068 80.8898 47.3933 -1.8447 8.2673 6.9402 11.6796 7.44912 2.488 -0.0983013 1.17084 0.97421 -3.57996 12.8037 -3.88447 5.25782 4.03488 -7.17459 -0.0 0.0 0.0 -0.0 0.0 0.0 -8.95659e-14 1.29735e-13 4.36592e-14 58.4577 22.4194 -8.73182 -24.1104 -19.3049 49.9595 -0.178542 11.9749 1.70803 1.94864e-10 -8.7348e-10 2.49892e-10 3.39683e-10 -1.51147e-09 4.29858e-10 1.94865e-10 -8.73478e-10 2.49892e-10 7.73091 5.47488 0.417314 1.94872e-10 -8.73486e-10 2.49892e-10 2.90554 0.965183 0.102902 1.94868e-10 -8.7348e-10 2.4989e-10 10.2786 0.731801 0.0259123 1.9486e-10 -8.73482e-10 2.49895e-10 2.22167 -0.733487 -0.20892 -8.95511e-14 1.29729e-13 4.35439e-14 -31.97 -23.0879 13.0201 20.1148 -53.2573 -113.935 -0.000792898 -0.412851 0.0580593 -5.87486e-11 1.11331e-09 -5.72985e-10 -1.00852e-10 1.92677e-09 -9.90668e-10 -5.87568e-11 1.1133e-09 -5.72967e-10 -7.73091 5.47488 -0.417314 -5.87508e-11 1.11329e-09 -5.72984e-10 -2.90554 0.965183 -0.102902 -5.87544e-11 1.11331e-09 -5.72986e-10 -10.2786 0.731801 -0.0259123 -5.87445e-11 1.11331e-09 -5.72992e-10 -2.22167 -0.733487 0.20892 -2.03217e-16 0.0 -3.88251e-19 0.165991 -28.8526 9.60507 -0.0214324 35.0794 1.06857 -1.02462 -24.7826 -11.2403 2.03217e-16 0.0 3.88251e-19 10.4966 -33.1245 3.37487 0.416215 47.4199 -1.52229 -2.1151 -6.35951 -15.3506
53.9629 80.5588 46.5871 -1.627 7.8958 6.998 10.7413 7.59928 2.57166 -0.136883 1.108 0.989566 -3.53165 12.8042 -3.84998 5.16063 3.93631 -7.1063 -0.0 0.0 0.0 -0.0 0.0 0.0 -9.226e-14 5.72477e-14 1.9133e-14 58.673 21.4827 -9.16787 -24.1602 -19.3994 50.1202 -0.188701 12.2833 1.75352 1.37415e-09 -1.55335e-09 -2.28634e-10 2.37522e-09 -2.66602e-09 -4.07425e-10 1.37415e-09 -1.55335e-09 -2.28637e-10 7.73091 5.47488 0.417314 1.37415e-09 -1.55336e-09 -2.28637e-10 2.90554 0.965183 0.102902 1.37415e-09 -1.55335e-09 -2.28637e-10 10.2786 0.731801 0.0259123 1.37414e-09 -1.55335e-09 -2.28631e-10 2.22167 -0.733487 -0.20892 -9.22183e-14 5.72525e-14 1.90336e-14 -31.8397 -23.447 12.9704 20.2319 -53.1678 -113.648 0.0020957 -1.30705 0.183726 8.24648e-10 1.14066e-09 -4.7813e-10 1.4307e-09 1.982e-09 -8.28682e-10 8.24641e-10 1.14065e-09 -4.78114e-10 -7.73091 5.47488 -0.417314 8.24645e-10 1.14064e-09 -4.7813e-10 -2.90554 0.965183 -0.102902 8.24642e-10 1.14066e-09 -4.78133e-10 -10.2786 0.731801 -0.0259123 8.24653e-10 1.14066e-09 -4.78139e-10 -2.22167 -0.733487 0.20892 -2.03217e-16 0.0 -3.88251e-19 -1.3438 -27.1847 8.89788 -0.0698798 36.2914 1.19879 -0.721018 -24.1757 -11.0947 2.03217e-16 0.0 3.88251e-19 9.25439 -33.7369 3.10093 0.429003 47.689 -1.48483 -2.34546 -7.07914 -15.5532
53.3028 80.279 45.7809 -1.3132 7.4636 7.0489 9.57728 7.80222 2.70855 -0.208048 1.11707 1.00485 -3.43785 12.8219 -3.78366 5.01382 3.85222 -6.97999 -0.0 0.0 0.0 -0.0 0.0 0.0 -6.19271e-14 -4.20467e-14 1.20886e-14 58.9618 20.5858 -9.5086 -24.1879 -19.452 50.2116 -0.19127 12.3411 1.76219 2.06114e-09 -1.91778e-09 -6.56382e-10 3.55909e-09 -3.28507e-09 -1.15059e-09 2.06114e-09 -1.91778e-09 -6.56389e-10 7.73091 5.47488 0.417314 2.06114e-09 -1.91779e-09 -6.56384e-10 2.90554 0.965183 0.102902 2.06114e-09 -1.91778e-09 -6.56383e-10 10.2786 0.731801 0.0259123 2.06113e-09 -1.91778e-09 -6.56378e-10 2.22167 -0.733487 -0.20892 -6.18961e-14 -4.20392e-14 1.20187e-14 -31.7593 -23.768 12.7998 20.4107 -53.0264 -113.208 0.00555512 -2.13637 0.300335 1.07736e-09 1.59135e-09 -6.4001e-10 1.87087e-09 2.76829e-09 -1.11018e-09 1.07736e-09 1.59134e-09 -6.39996e-10 -7.73091 5.47488 -0.417314 1.07736e-09 1.59133e-09 -6.40009e-10 -2.90554 0.965183 -0.102902 1.07736e-09 1.59134e-09 -6.40012e-10 -10.2786 0.731801 -0.0259123 1.07737e-09 1.59134e-09 -6.40018e-10 -2.22167 -0.733487 0.20892 -2.03217e-16 0.0 -3.88251e-19 -3.17127 -25.325 8.29044 -0.0929788 37.9885 1.38184 -0.511505 -23.6189 -11.5622 2.03217e-16 0.0 3.88251e-19 7.79861 -34.2807 2.84316 0.443815 47.7774 -1.41021 -2.61492 -7.73373 -15.7984
52.5895 80.0041 44.9636 -0.9163 6.9652 7.0757 8.22463 8.06108 2.88563 -0.301762 1.17578 1.02088 -3.30862 12.854 -3.69042 4.81503 3.78049 -6.80388 -0.0 0.0 0.0 -0.0 0.0 0.0 -8.69696e-15 -1.68175e-13 1.17469e-14 59.3069 19.6846 -9.769 -24.199 -19.473 50.2479 -0.189384 12.2552 1.74969 2.55283e-09 -2.14019e-09 -1.10241e-09 4.40459e-09 -3.66273e-09 -1.92232e-09 2.55284e-09 -2.14019e-09 -1.10242e-09 7.73091 5.47488 0.417314 2.55283e-09 -2.1402e-09 -1.10241e-09 2.90554 0.965183 0.102902 2.55283e-09 -2.14019e-09 -1.10241e-09 10.2786 0.731801 0.0259123 2.55283e-09 -2.14019e-09 -1.10241e-09 2.22167 -0.733487 -0.20892 -8.70041e-15 -1.68169e-13 1.17159e-14 -31.744 -24.0626 12.5208 20.6356 -52.841 -112.648 0.0101178 -2.94906 0.414754 1.01859e-09 2.29825e-09 -9.46977e-10 1.77229e-09 3.99784e-09 -1.64251e-09 1.01858e-09 2.29824e-09 -9.46966e-10 -7.73091 5.47488 -0.417314 1.01859e-09 2.29824e-09 -9.46975e-10 -2.90554 0.965183 -0.102902 1.01858e-09 2.29824e-09 -9.46976e-10 -10.2786 0.731801 -0.0259123 1.0186e-09 2.29824e-09 -9.46982e-10 -2.22167 -0.733487 0.20892 -2.03217e-16 0.0 -3.88251e-19 -5.26034 -23.2634 7.72125 -0.114977 40.0734 1.61731 -0.33743 -23.0669 -12.4372 2.03217e-16 0.0 3.88251e-19 6.15419 -34.8033 2.60488 0.460219 47.7165 -1.3061 -2.91873 -8.36015 -16.0649
51.8913 79.8293 44.156 -0.4706 6.4402 7.0712 6.90355 8.33587 3.05291 -0.396086 1.24565 1.03261 -3.17196 12.8978 -3.58016 4.59748 3.71966 -6.59649 -0.0 0.0 0.0 -0.0 0.0 0.0 4.25218e-14 -2.77008e-13 1.82664e-14 59.7114 18.8366 -10.0101 -24.2104 -19.4951 50.2841 -0.181224 11.9926 1.71104 2.83817e-09 -2.22975e-09 -1.46719e-09 4.89405e-09 -3.81437e-09 -2.55194e-09 2.83819e-09 -2.22975e-09 -1.46721e-09 7.73091 5.47488 0.417314 2.83818e-09 -2.22976e-09 -1.46719e-09 2.90554 0.965183 0.102902 2.83818e-09 -2.22975e-09 -1.46719e-09 10.2786 0.731801 0.0259123 2.83817e-09 -2.22975e-09 -1.46718e-09 2.22167 -0.733487 -0.20892 4.24828e-14 -2.77006e-13 1.82649e-14 -31.7546 -24.3283 12.183 20.8952 -52.622 -111.994 0.0159841 -3.68427 0.518453 8.22373e-10 2.95902e-09 -1.25067e-09 1.4354e-09 5.14606e-09 -2.1688e-09 8.22368e-10 2.95902e-09 -1.25066e-09 -7.73091 5.47488 -0.417314 8.22375e-10 2.95902e-09 -1.25067e-09 -2.90554 0.965183 -0.102902 8.22368e-10 2.95902e-09 -1.25067e-09 -10.2786 0.731801 -0.0259123 8.2238e-10 2.95902e-09 -1.25067e-09 -2.22167 -0.733487 0.20892 -2.03217e-16 0.0 -3.88251e-19 -7.25791 -21.4071 7.16408 -0.149871 42.2992 1.86364 -0.135364 -22.5741 -13.1407 2.03217e-16 0.0 3.88251e-19 4.50714 -35.2193 2.38653 0.473472 47.4953 -1.18529 -3.22328 -8.95554 -16.3503
